<?xml version="1.0" encoding="utf-8"?>
<!-- Generator: Adobe Illustrator 22.0.1, SVG Export Plug-In . SVG Version: 6.00 Build 0)  -->
<svg version="1.1" id="Layer_1" xmlns="http://www.w3.org/2000/svg" xmlns:xlink="http://www.w3.org/1999/xlink" x="0px" y="0px"
	 viewBox="0 0 500 500" style="enable-background:new 0 0 500 500;" xml:space="preserve">
<style type="text/css">
	.st0{fill:#4FACFE;}
	.st1{fill:#222831;}
</style>
<g>
	<path class="st0" d="M145.1,314.3c-3.3,2.4-6.6,4.8-9.7,7.1c-6.6,4.8-12.9,9.3-18.9,13.7l-0.2,0.1c-4.8,3.4-9.4,6.7-13.8,9.9
		c-1.5,1.1-2.9,2.1-4.4,3.1c-1.4,1-2.9,2.1-4.3,3.1c-1.4,1-2.8,2-4.1,2.9c-0.7,0.5-1.4,1-2.1,1.5c-1.3,1-2.7,1.9-4,2.8
		c-0.7,0.5-1.3,0.9-2,1.4c-0.6,0.5-1.3,0.9-1.9,1.4c-1.2,0.9-2.4,1.7-3.6,2.6c-2.5,1.8-5,3.5-7.4,5.2c-1,0.7-2.1,1.5-3.1,2.2
		c-3.9,2.7-7.5,5.3-11,7.7c-6.1,4.3-11.6,8.1-16.3,11.4c-0.4,0.3-0.8,0.6-1.2,0.8c-0.8,0.6-1.6,1.1-2.3,1.6c-0.8,0.5-1.5,1-2.2,1.5
		c-1.1,0.7-2.1,1.4-3.1,2.1c-0.2,0.1-0.3,0.2-0.5,0.3c-0.6,0.4-1.1,0.8-1.7,1.1c-2.7,1.9-5.1,3.5-7,4.8c-0.2,0.2-0.5,0.3-0.7,0.5
		c-0.2,0.2-0.4,0.3-0.7,0.4c-0.2,0.1-0.3,0.2-0.5,0.3c-0.5,0.3-0.9,0.6-1.3,0.9c-0.7,0.5-1.3,0.9-1.8,1.3c-0.4,0.3-0.8,0.5-1,0.7
		c-1.8-1.3-3.6-2.1-5.1-2.4c-1.6-0.4-3.1-0.2-4.2,0.6c-3.8,2.6-2.4,11.1,3.1,18.9c5.5,7.8,13,12,16.7,9.4c1.1-0.8,1.8-2.1,2-3.7
		c0.2-1.6,0.1-3.6-0.5-5.7c0.2-0.2,0.6-0.4,1-0.7c0.5-0.4,1.1-0.8,1.9-1.3c0.2-0.1,0.3-0.3,0.5-0.4c0.2-0.1,0.4-0.3,0.6-0.4
		c0.4-0.3,0.8-0.6,1.2-0.9c0.2-0.2,0.4-0.3,0.7-0.5c0.9-0.7,2-1.4,3.1-2.2c0.5-0.4,1.1-0.8,1.6-1.2c0.7-0.5,1.4-1,2.1-1.5
		c0.5-0.4,1.1-0.8,1.6-1.2c1.4-1,2.8-2,4.3-3.1c0.5-0.4,1-0.7,1.6-1.1c0.6-0.4,1.2-0.9,1.8-1.3c0.9-0.6,1.8-1.3,2.7-1.9
		c17.1-12.1,42.9-30.1,77.2-53.5l0.2-0.1c6.2-4.2,12.6-8.6,19.3-13.1c11.6-7.8,24-16.2,37.1-25H145.1z"/>
	<path class="st0" d="M491.3,85.5C481.6,71,473.7,75,472.8,75.3c-26.6,14.1-125.2,88.2-166.4,119.4h61
		c48.4-31.7,110.5-73.2,127.2-88.3C495.2,105.6,501.6,99.6,491.3,85.5z"/>
	<path class="st0" d="M179.8,314.3c-11.4,7.7-22.7,15.2-33.6,22.6c-6.7,4.5-13.2,8.9-19.4,13.2l-0.2,0.1
		c-35.8,24.4-61.8,42.6-77.2,53.5l-4.6,3.3c-0.5,0.4-1,0.7-1.5,1.1l-6,4.2c-0.8,0.5-1.5,1-2.1,1.5l-1.6,1.2
		c-0.7,0.5-1.3,0.9-1.9,1.4l-1.2,0.9c-0.3,0.2-0.5,0.3-0.7,0.5c-0.4,0.3-0.9,0.6-1.2,0.9c-0.2,0.1-0.4,0.3-0.6,0.4
		c-0.2,0.1-0.4,0.3-0.5,0.4l-0.9,0.6c-0.4,0.3-0.7,0.5-1,0.7l-0.3,0.2c-0.3,0.2-0.5,0.3-0.6,0.5l-1.7,1.2l0.5,2
		c0.5,1.8,0.6,3.3,0.4,4.5c-0.1,0.6-0.3,1.4-0.8,1.8c-0.3,0.2-0.6,0.3-1,0.3c-2.7,0-7.6-3.1-11.6-8.9c-2.4-3.4-4-7.1-4.5-10.2
		c-0.4-2.3-0.1-4.1,0.7-4.7c0.3-0.2,0.6-0.3,1-0.3c0.3,0,0.6,0,0.9,0.1c1.2,0.3,2.6,0.9,4.1,1.9l1.7,1.2l1.7-1.2
		c0.2-0.1,0.4-0.3,0.6-0.4l0.3-0.2c0.3-0.2,0.6-0.4,0.9-0.6l2.1-1.5c0.2-0.1,0.3-0.2,0.5-0.3c0.2-0.2,0.5-0.3,0.7-0.5l2.3-1.6
		c1.6-1.1,3.3-2.3,5.3-3.7c0.5-0.4,1-0.7,1.6-1.1l3.6-2.5c0.7-0.5,1.4-1,2.2-1.5c0.8-0.5,1.5-1.1,2.3-1.6c0.4-0.3,0.8-0.6,1.3-0.9
		c4.8-3.3,10.2-7.1,16.4-11.4c3.3-2.3,6.7-4.7,10.3-7.3l11.1-7.8l26.4-18.8c4-2.8,8.1-5.8,12.4-8.9l1.7-1.2
		c6.1-4.4,12.4-8.9,18.9-13.7c4.3-3.1,8.6-6.2,13-9.4h-9.9c-2.2,1.6-4.3,3.1-6.5,4.7c-6.6,4.8-12.9,9.3-18.9,13.6l-1.7,1.2
		c-4.2,3-8.4,6-12.3,8.8l-37.5,26.6c-3.6,2.6-7.1,5-10.3,7.3c-6.1,4.3-11.6,8.1-16.4,11.4c-0.4,0.3-0.7,0.5-1.2,0.8
		c-0.8,0.5-1.5,1.1-2.3,1.6l-0.1,0.1c-0.7,0.5-1.4,1-2.1,1.5l-3.2,2.2c-0.1,0.1-0.3,0.2-0.4,0.3c-0.6,0.4-1.1,0.7-1.6,1.1
		c-2,1.4-3.8,2.6-5.3,3.6l-2.4,1.6c-0.2,0.1-0.4,0.3-0.5,0.4l-0.1,0.1c-0.1,0.1-0.2,0.1-0.3,0.2l-2.3,1.6c-0.1,0.1-0.2,0.1-0.3,0.2
		c-1.5-0.9-3-1.5-4.5-1.8c-2.5-0.5-4.8-0.2-6.5,1.1c-2.8,2-3.9,5.6-3.1,10.4c0.6,4,2.6,8.5,5.5,12.6c4.8,6.9,11.3,11.4,16.4,11.4
		c1.7,0,3.1-0.4,4.4-1.3c1.2-0.8,2.7-2.5,3.2-5.6c0.2-1.5,0.2-3.1-0.1-4.9c0.1-0.1,0.2-0.2,0.3-0.2l1-0.7c0.1-0.1,0.3-0.2,0.4-0.3
		l0.1-0.1c0.1-0.1,0.3-0.2,0.5-0.4c0.4-0.3,0.7-0.6,1.2-0.9l0.1-0.1c0.2-0.1,0.4-0.3,0.6-0.4l1.2-0.9c0.6-0.4,1.2-0.9,1.9-1.3
		l1.7-1.2c0.7-0.5,1.4-1,2.1-1.5l5.9-4.2c0.5-0.4,1.1-0.8,1.6-1.1l4.6-3.2c15.4-10.9,41.4-29,77.2-53.5l0.2-0.1
		c6.2-4.2,12.6-8.6,19.3-13.1c13.2-8.9,26.8-18.1,40.7-27.4H179.8z"/>
	<path class="st0" d="M493.7,83.9c-6.7-10.1-13.1-12.2-17.3-12.2c-2.3,0-4,0.7-4.6,0.9l-0.3,0.1c-27.5,14.6-129.2,91.2-169.9,121.9
		h9.6C401,126.9,455.8,87.7,474,78l0,0c0.3-0.1,1.2-0.5,2.4-0.5c3.9,0,8.3,3.4,12.5,9.7l0.1,0.1c5.4,7.4,6.7,13.6,3.6,17.1l0,0
		c-13.4,12-57.2,42.3-130.4,90.3h10.6c48.1-31.5,107.3-71.2,123.8-86.1l0.3-0.3C499.3,105.5,503.8,97.8,493.7,83.9z"/>
</g>
<g>
	<path class="st1" d="M334.5,183.6c0,0,5.7-5,14.5-12.1c2.2-1.8,4.6-3.7,7.2-5.7c2.6-2,5.2-4.1,8.1-6.3c2.8-2.1,5.7-4.4,8.7-6.6
		c3-2.2,6-4.5,9-6.8c3.1-2.2,6.1-4.4,9.1-6.6c3-2.2,6-4.3,8.9-6.3c2.9-2.1,5.7-4,8.4-5.8c2.7-1.8,5.2-3.6,7.6-5.1
		c4.7-3.2,8.7-5.7,11.5-7.4c2.8-1.8,4.4-2.7,4.4-2.7s-1.5,1.2-4,3.3c-2.6,2.1-6.3,5-10.8,8.5c-2.2,1.7-4.7,3.6-7.2,5.6
		c-2.6,2-5.3,4.1-8.1,6.2c-2.8,2.1-5.7,4.4-8.7,6.6c-3,2.2-6,4.5-9,6.7c-3.1,2.2-6.1,4.5-9.1,6.7c-3,2.2-6,4.3-8.9,6.4
		c-2.9,2.1-5.7,4-8.3,5.9c-2.6,1.9-5.2,3.6-7.5,5.2c-4.7,3.2-8.6,5.9-11.4,7.7C336.1,182.6,334.5,183.6,334.5,183.6z"/>
</g>
<g>
	<path class="st1" d="M355.5,194.7c3.1-1.9,6.2-3.9,9.3-6c4.7-3.1,9.5-6.2,14.2-9.3c4.7-3.2,9.5-6.3,14.1-9.4
		c4.7-3.1,9.2-6.2,13.6-9.2c4.4-3,8.6-6,12.6-8.8c4-2.8,7.8-5.5,11.2-8c3.5-2.5,6.6-4.8,9.4-6.9c2.8-2.1,5.2-3.9,7.2-5.3
		c2-1.5,3.5-2.7,4.6-3.5c1.1-0.8,1.6-1.2,1.6-1.2s-0.6,0.4-1.7,1.1c-1.1,0.7-2.8,1.7-4.9,3.1c-4.2,2.7-10.2,6.5-17.4,11.1
		c-3.6,2.3-7.5,4.8-11.6,7.5c-4.1,2.7-8.4,5.5-12.9,8.4c-4.5,2.9-9.1,5.9-13.8,9c-4.7,3.1-9.4,6.2-14.2,9.3
		c-4.7,3.1-9.5,6.3-14.1,9.4c-4.5,3-8.9,5.9-13.2,8.8H355.5z"/>
</g>
<g>
	<path class="st1" d="M470,82.9c0,0,0.1-0.1,0.3-0.2c0.2-0.2,0.5-0.3,1-0.5c0.2-0.1,0.5-0.1,0.8-0.2c0.3,0,0.7-0.1,1,0
		c0.7,0,1.5,0.2,2.4,0.5c0.8,0.3,1.7,0.7,2.5,1.2c0.8,0.5,1.7,1.1,2.4,1.8c0.8,0.7,1.5,1.5,2.2,2.3c0.3,0.4,0.7,0.8,1,1.3l0.9,1.3
		l0.9,1.3c0.3,0.5,0.6,0.9,0.9,1.4c0.5,0.9,1,1.9,1.4,2.9c0.4,1,0.7,1.9,0.9,2.9c0.1,0.5,0.2,1,0.2,1.4c0,0.5,0.1,0.9,0.1,1.4
		c0,0.9-0.2,1.7-0.4,2.4c-0.1,0.3-0.3,0.7-0.4,0.9c-0.2,0.3-0.3,0.5-0.5,0.7c-0.7,0.8-1.2,1-1.2,1c0,0,0-0.1,0.1-0.4
		c0.1-0.2,0.1-0.6,0.2-1c0-0.4,0-0.9-0.1-1.5c-0.1-0.6-0.3-1.2-0.5-1.8c-0.2-0.6-0.5-1.3-0.9-2c-0.4-0.7-0.8-1.4-1.3-2.2
		c-0.5-0.8-1-1.5-1.5-2.3c-0.3-0.4-0.5-0.7-0.8-1.1l-0.9-1.3c-0.6-0.9-1.1-1.6-1.7-2.4c-0.6-0.8-1.1-1.5-1.6-2.2
		c-0.5-0.7-1.1-1.4-1.6-1.9c-0.5-0.6-1.1-1.1-1.6-1.6c-0.5-0.5-1-0.8-1.5-1.1c-0.5-0.3-1-0.5-1.4-0.6c-0.4-0.1-0.8-0.2-1-0.1
		C470.1,82.9,470,82.9,470,82.9z"/>
</g>
<g>
	<path class="st1" d="M116.4,335.1l6.1,8.7l6.1,8.7l-0.1,0.1l-0.1,0.1c-17.2,11.7-32.2,22-45,31c-12.9,8.9-23.6,16.5-32.1,22.5
		c-0.5,0.3-0.9,0.7-1.4,1s-0.9,0.6-1.3,0.9c-0.3,0.2-0.6,0.4-0.9,0.7c-0.3,0.2-0.6,0.4-0.9,0.6c-0.3,0.2-0.5,0.4-0.8,0.6
		c-0.3,0.2-0.5,0.4-0.8,0.5c-0.8,0.5-1.5,1.1-2.2,1.6c-0.7,0.5-1.4,1-2.1,1.5c-0.3,0.2-0.6,0.4-0.8,0.6c-0.3,0.2-0.5,0.4-0.8,0.6
		c-0.4,0.3-0.7,0.5-1.1,0.8c-0.4,0.3-0.7,0.5-1,0.7c-0.3,0.2-0.6,0.4-0.8,0.6c-0.3,0.2-0.5,0.4-0.8,0.6c-0.6,0.4-1.1,0.8-1.6,1.2
		c-0.5,0.4-1,0.7-1.5,1.1c-0.1,0.1-0.2,0.2-0.3,0.2c-0.1,0.1-0.2,0.2-0.3,0.2c-0.2,0.2-0.4,0.3-0.6,0.5c-0.2,0.1-0.4,0.3-0.6,0.4
		c-0.1,0.1-0.2,0.1-0.3,0.2c-0.1,0.1-0.2,0.1-0.3,0.2c-0.1,0.1-0.2,0.1-0.3,0.2c-0.1,0.1-0.2,0.1-0.3,0.2c-0.4,0.3-0.7,0.5-1,0.7
		c-0.3,0.2-0.6,0.4-0.8,0.6l-1-0.5c-6-2.9-10.1-8.8-10.8-15.5l-0.1-1.1c0.3-0.2,0.5-0.4,0.8-0.6c0.3-0.2,0.6-0.4,1-0.7
		c0.2-0.1,0.4-0.3,0.6-0.4c0.2-0.1,0.4-0.3,0.7-0.4c0.1,0,0.2-0.1,0.2-0.2c0.1-0.1,0.2-0.1,0.2-0.2c0.1-0.1,0.2-0.1,0.3-0.2
		c0.1-0.1,0.2-0.2,0.3-0.2c0.1-0.1,0.2-0.2,0.3-0.2c0.1-0.1,0.2-0.2,0.4-0.2c1-0.7,2-1.4,3.2-2.2c1.2-0.8,2.4-1.7,3.8-2.6
		c0.3-0.2,0.5-0.4,0.8-0.6c0.3-0.2,0.6-0.4,0.8-0.6c0.1-0.1,0.2-0.1,0.2-0.2s0.2-0.1,0.2-0.2c0.5-0.3,1-0.7,1.5-1
		c0.5-0.4,1-0.7,1.6-1.1c0.4-0.2,0.7-0.5,1.1-0.7c0.4-0.3,0.7-0.5,1.1-0.8c0.4-0.3,0.8-0.5,1.1-0.8s0.8-0.5,1.2-0.8
		c0.2-0.1,0.4-0.3,0.6-0.4c0.2-0.1,0.4-0.3,0.6-0.4c2.4-1.7,4.9-3.4,7.7-5.3c2.7-1.9,5.6-3.9,8.7-6.1c1.7-1.2,3.5-2.5,5.3-3.7
		c1.8-1.3,3.7-2.6,5.7-4c0.5-0.4,1-0.7,1.5-1.1s1-0.7,1.6-1.1c1.2-0.8,2.4-1.7,3.6-2.6c1.2-0.9,2.5-1.7,3.7-2.6
		c0.6-0.4,1.2-0.9,1.8-1.3c0.6-0.4,1.2-0.9,1.8-1.3c0.3-0.2,0.6-0.5,1-0.7c0.3-0.2,0.6-0.5,1-0.7c0.3-0.2,0.7-0.5,1-0.7
		c0.3-0.2,0.7-0.5,1-0.7c0.7-0.5,1.3-0.9,2-1.4c0.7-0.5,1.3-0.9,2-1.4c0.3-0.2,0.7-0.5,1-0.7c0.3-0.2,0.7-0.5,1-0.7
		c0.7-0.5,1.4-1,2.1-1.5c0.7-0.5,1.4-1,2.1-1.5c0.7-0.5,1.4-1,2.1-1.5c0.7-0.5,1.4-1,2.2-1.5c0.7-0.5,1.4-1,2.2-1.6
		c0.7-0.5,1.5-1,2.2-1.6c2.2-1.6,4.5-3.2,6.8-4.9c2.3-1.7,4.6-3.3,7-5L116.4,335.1L116.4,335.1z"/>
</g>
<g>
	<g>
		<path class="st0" d="M19.1,423.3c0,0-0.8-0.7-1.9-2c-1.1-1.2-2.5-2.9-3.8-4.8c-1.3-1.8-2.4-3.8-3.2-5.3c-0.8-1.5-1.2-2.6-1.2-2.6
			l3.9-1.2c0,0,0.2,1,0.6,2.6c0.4,1.5,1,3.6,1.8,5.6c0.8,2,1.7,4,2.5,5.4C18.5,422.4,19.1,423.3,19.1,423.3z"/>
	</g>
	<g>
		<path class="st0" d="M27,417.8c0,0-0.8-0.7-1.9-2c-1.1-1.2-2.5-2.9-3.8-4.8c-1.3-1.8-2.4-3.8-3.2-5.3c-0.8-1.5-1.2-2.6-1.2-2.6
			l3.9-1.2c0,0,0.2,1,0.6,2.6c0.4,1.5,1,3.6,1.8,5.6c0.8,2,1.7,4,2.5,5.4C26.4,416.9,27,417.8,27,417.8z"/>
	</g>
	<g>
		<path class="st0" d="M34.9,412.3c0,0-0.8-0.7-1.9-2c-1.1-1.2-2.5-2.9-3.8-4.8c-1.3-1.8-2.4-3.8-3.2-5.3c-0.8-1.5-1.2-2.6-1.2-2.6
			l3.9-1.2c0,0,0.2,1,0.6,2.6c0.4,1.5,1,3.6,1.8,5.6c0.8,2,1.7,4,2.5,5.4C34.3,411.4,34.9,412.3,34.9,412.3z"/>
	</g>
	<g>
		<path class="st0" d="M42.7,406.8c0,0-0.8-0.7-1.9-2c-1.1-1.2-2.5-2.9-3.8-4.8c-1.3-1.8-2.4-3.8-3.2-5.3c-0.8-1.5-1.2-2.6-1.2-2.6
			l3.9-1.2c0,0,0.2,1,0.6,2.6c0.4,1.5,1,3.6,1.8,5.6c0.8,2,1.7,4,2.5,5.4C42.1,405.9,42.7,406.8,42.7,406.8z"/>
	</g>
	<g>
		<path class="st0" d="M50.6,401.3c0,0-0.8-0.7-1.9-2c-1.1-1.2-2.5-2.9-3.8-4.8c-1.3-1.8-2.4-3.8-3.2-5.3c-0.8-1.5-1.2-2.6-1.2-2.6
			l3.9-1.2c0,0,0.2,1,0.6,2.6c0.4,1.5,1,3.6,1.8,5.6c0.8,2,1.7,4,2.5,5.4C50,400.4,50.6,401.3,50.6,401.3z"/>
	</g>
	<g>
		<path class="st0" d="M58.5,395.8c0,0-0.8-0.7-1.9-2c-1.1-1.2-2.5-2.9-3.8-4.8c-1.3-1.8-2.4-3.8-3.2-5.3c-0.8-1.5-1.2-2.6-1.2-2.6
			l3.9-1.2c0,0,0.2,1,0.6,2.6c0.4,1.5,1,3.6,1.8,5.6c0.8,2,1.7,4,2.5,5.4C57.9,394.9,58.5,395.8,58.5,395.8z"/>
	</g>
	<g>
		<path class="st0" d="M66.4,390.3c0,0-0.8-0.7-1.9-2c-1.1-1.2-2.5-2.9-3.8-4.8c-1.3-1.8-2.4-3.8-3.2-5.3c-0.8-1.5-1.2-2.6-1.2-2.6
			l3.9-1.2c0,0,0.2,1,0.6,2.6c0.4,1.5,1,3.6,1.8,5.6c0.8,2,1.7,4,2.5,5.4C65.7,389.4,66.4,390.3,66.4,390.3z"/>
	</g>
	<g>
		<path class="st0" d="M74.2,384.8c0,0-0.8-0.7-1.9-2c-1.1-1.2-2.5-2.9-3.8-4.8c-1.3-1.8-2.4-3.8-3.2-5.3c-0.8-1.5-1.2-2.6-1.2-2.6
			l3.9-1.2c0,0,0.2,1,0.6,2.6c0.4,1.5,1,3.6,1.8,5.6c0.8,2,1.7,4,2.5,5.4C73.6,383.9,74.2,384.8,74.2,384.8z"/>
	</g>
	<g>
		<path class="st0" d="M82.1,379.3c0,0-0.8-0.7-1.9-2c-1.1-1.2-2.5-2.9-3.8-4.8c-1.3-1.8-2.4-3.8-3.2-5.3c-0.8-1.5-1.2-2.6-1.2-2.6
			l3.9-1.2c0,0,0.2,1,0.6,2.6c0.4,1.5,1,3.6,1.8,5.6c0.8,2,1.7,4,2.5,5.4C81.5,378.4,82.1,379.3,82.1,379.3z"/>
	</g>
	<g>
		<path class="st0" d="M90,373.8c0,0-0.8-0.7-1.9-2c-1.1-1.2-2.5-2.9-3.8-4.8c-1.3-1.8-2.4-3.8-3.2-5.3c-0.8-1.5-1.2-2.6-1.2-2.6
			l3.9-1.2c0,0,0.2,1,0.6,2.6c0.4,1.5,1,3.6,1.8,5.6c0.8,2,1.7,4,2.5,5.4C89.3,372.8,90,373.8,90,373.8z"/>
	</g>
	<g>
		<path class="st0" d="M97.8,368.2c0,0-0.8-0.7-1.9-2c-1.1-1.2-2.5-2.9-3.8-4.8c-1.3-1.8-2.4-3.8-3.2-5.3c-0.8-1.5-1.2-2.6-1.2-2.6
			l3.9-1.2c0,0,0.2,1,0.6,2.6c0.4,1.5,1,3.6,1.8,5.6c0.8,2,1.7,4,2.5,5.4C97.2,367.3,97.8,368.2,97.8,368.2z"/>
	</g>
	<g>
		<path class="st0" d="M105.7,362.7c0,0-0.8-0.7-1.9-2c-1.1-1.2-2.5-2.9-3.8-4.8c-1.3-1.8-2.4-3.8-3.2-5.3c-0.8-1.5-1.2-2.6-1.2-2.6
			l3.9-1.2c0,0,0.2,1,0.6,2.6c0.4,1.5,1,3.6,1.8,5.6c0.8,2,1.7,4,2.5,5.4C105.1,361.8,105.7,362.7,105.7,362.7z"/>
	</g>
	<g>
		<path class="st0" d="M113.6,357.2c0,0-0.8-0.7-1.9-2c-1.1-1.2-2.5-2.9-3.8-4.8c-1.3-1.8-2.4-3.8-3.2-5.3c-0.8-1.5-1.2-2.6-1.2-2.6
			l3.9-1.2c0,0,0.2,1,0.6,2.6c0.4,1.5,1,3.6,1.8,5.6c0.8,2,1.7,4,2.5,5.4C112.9,356.3,113.6,357.2,113.6,357.2z"/>
	</g>
	<g>
		<path class="st0" d="M121.4,351.7c0,0-0.8-0.7-1.9-2c-1.1-1.2-2.5-2.9-3.8-4.8c-1.3-1.8-2.4-3.8-3.2-5.3c-0.8-1.5-1.2-2.6-1.2-2.6
			l3.9-1.2c0,0,0.2,1,0.6,2.6c0.4,1.5,1,3.6,1.8,5.6c0.8,2,1.7,4,2.5,5.4C120.8,350.8,121.4,351.7,121.4,351.7z"/>
	</g>
</g>
<g>
	<path class="st0" d="M193.7,194.7C152.5,163.6,53.8,89.4,27.2,75.3C26.3,75,18.4,71,8.7,85.5c-10.3,14-3.9,20.1-3.3,20.9
		c16.7,15.1,78.8,56.6,127.2,88.3H193.7z"/>
	<path class="st0" d="M495,404.9c-1.1-0.8-2.6-1-4.2-0.6c-1.6,0.3-3.4,1.2-5.1,2.4c-0.2-0.2-0.6-0.4-1-0.7c-0.5-0.3-1.1-0.8-1.8-1.3
		c-0.4-0.3-0.8-0.5-1.3-0.9c-0.2-0.1-0.3-0.2-0.5-0.3c-0.2-0.1-0.4-0.3-0.7-0.4c-0.2-0.2-0.5-0.3-0.7-0.5c-1.9-1.3-4.2-2.9-7-4.8
		c-0.5-0.4-1.1-0.7-1.7-1.1c-0.2-0.1-0.3-0.2-0.5-0.3c-1-0.7-2-1.4-3.1-2.1c-0.7-0.5-1.4-1-2.2-1.5c-0.8-0.5-1.5-1-2.3-1.6
		c-0.4-0.3-0.8-0.5-1.2-0.8c-4.8-3.3-10.2-7.1-16.3-11.4c-3.4-2.4-7.1-5-11-7.7c-1-0.7-2-1.4-3.1-2.2c-2.4-1.7-4.8-3.4-7.4-5.2
		c-1.2-0.8-2.4-1.7-3.6-2.6c-0.6-0.4-1.3-0.9-1.9-1.4c-0.7-0.5-1.3-0.9-2-1.4c-1.3-0.9-2.6-1.9-4-2.8c-0.7-0.5-1.4-1-2.1-1.5
		c-1.4-1-2.7-2-4.1-2.9c-1.4-1-2.9-2-4.3-3.1c-1.4-1-2.9-2.1-4.4-3.1c-4.4-3.2-9-6.5-13.8-9.9l-0.2-0.1c-6.1-4.4-12.4-8.9-18.9-13.7
		c-3.2-2.3-6.4-4.7-9.7-7.1h-40c13.2,8.8,25.6,17.2,37.1,25c6.7,4.5,13.2,8.9,19.3,13.1l0.2,0.1c34.3,23.4,60.1,41.4,77.2,53.5
		c0.9,0.7,1.8,1.3,2.7,1.9c0.6,0.4,1.2,0.9,1.8,1.3c0.5,0.4,1.1,0.8,1.6,1.1c1.5,1.1,3,2.1,4.3,3.1c0.6,0.4,1.1,0.8,1.6,1.2
		c0.7,0.5,1.4,1,2.1,1.5c0.6,0.4,1.1,0.8,1.6,1.2c1.1,0.8,2.2,1.6,3.1,2.2c0.2,0.2,0.5,0.3,0.7,0.5c0.4,0.3,0.8,0.6,1.2,0.9
		c0.2,0.1,0.4,0.3,0.6,0.4c0.2,0.1,0.4,0.3,0.5,0.4c0.7,0.5,1.4,1,1.9,1.3c0.4,0.3,0.7,0.5,1,0.7c-0.6,2.1-0.7,4.1-0.5,5.7
		c0.3,1.6,0.9,2.9,2,3.7c3.8,2.6,11.3-1.5,16.7-9.4C497.4,416,498.8,407.6,495,404.9z"/>
	<path class="st0" d="M138,194.7c-73.3-48-117.1-78.3-130.4-90.3l0,0c-3.2-3.5-1.9-9.7,3.6-17.1l0.1-0.1c4.2-6.2,8.6-9.7,12.5-9.7
		c1.2,0,2,0.3,2.4,0.5l0,0c18.2,9.7,73,49,162.8,116.7h9.6C157.8,163.9,56.1,87.4,28.6,72.8l-0.4-0.2c-1.7-0.7-11.3-4.5-21.8,11.3
		c-10.2,13.9-5.6,21.7-3.1,24.4l0.3,0.3c16.5,14.9,75.7,54.6,123.8,86.1H138z"/>
	<path class="st0" d="M496.6,402.5c-1.7-1.2-4.1-1.6-6.5-1.1c-1.5,0.3-3,0.9-4.5,1.8c-0.1-0.1-0.2-0.1-0.3-0.2l-1-0.7l-1.4-0.9
		c-0.1-0.1-0.2-0.1-0.3-0.2l-0.1-0.1c-0.2-0.1-0.4-0.2-0.5-0.4l-2.4-1.6c-1.5-1.1-3.3-2.3-5.3-3.6c-0.5-0.4-1-0.7-1.6-1.1
		c-0.1-0.1-0.3-0.2-0.4-0.3l-3.2-2.2c-0.7-0.5-1.4-1-2.2-1.5c-0.7-0.5-1.5-1-2.3-1.6c-0.4-0.2-0.7-0.5-1.2-0.8
		c-4.8-3.3-10.2-7.1-16.3-11.4c-3.3-2.3-6.7-4.7-10.4-7.3l-11-7.8l-26.4-18.8c-4.1-2.9-8.3-5.9-12.7-9.1l-1.3-0.9
		c-6.1-4.4-12.4-8.9-18.9-13.7c-2.1-1.6-4.3-3.1-6.5-4.7H350c4.4,3.2,8.7,6.3,13,9.4c6.6,4.8,12.9,9.3,19,13.7l1.3,0.9
		c4.4,3.1,8.6,6.2,12.7,9.1l37.5,26.6c3.6,2.6,7.1,5,10.4,7.3c6.1,4.3,11.6,8.1,16.4,11.4c0.4,0.3,0.8,0.6,1.2,0.8
		c0.8,0.6,1.6,1.1,2.3,1.6c0.8,0.5,1.5,1,2.2,1.5l3.6,2.5c0.5,0.4,1.1,0.7,1.6,1.1c2,1.4,3.8,2.6,5.3,3.6l1.6,1.1
		c0.1,0.1,0.3,0.2,0.4,0.3l0.3,0.2c0.3,0.2,0.5,0.4,0.7,0.5c0.2,0.1,0.3,0.2,0.5,0.4l2.1,1.5c0.4,0.2,0.7,0.5,1,0.7l0.3,0.2
		c0.3,0.2,0.5,0.3,0.6,0.4l1.7,1.2l1.7-1.2c1.4-1,2.9-1.7,4.1-1.9c0.8-0.2,1.5-0.1,1.9,0.2c1.8,1.2,1.2,7.8-3.8,14.9
		c-4.1,5.8-9,8.9-11.6,8.9c-0.4,0-0.8-0.1-1-0.3c-0.5-0.4-0.7-1.1-0.8-1.7c-0.2-1.2,0-2.8,0.4-4.6l0.5-2l-1.7-1.2
		c-0.2-0.1-0.4-0.3-0.6-0.5l-0.3-0.2c-0.3-0.2-0.6-0.4-1-0.7l-0.9-0.6c-0.2-0.1-0.4-0.3-0.6-0.4c-0.2-0.1-0.4-0.3-0.6-0.4
		c-0.4-0.3-0.8-0.6-1.2-0.9c-0.2-0.2-0.5-0.3-0.7-0.5l-1.3-0.9c-0.6-0.4-1.2-0.9-1.9-1.4l-1.6-1.1c-0.7-0.5-1.4-1-2.1-1.5l-6-4.3
		c-0.5-0.3-1-0.7-1.6-1.1l-4.6-3.2c-15.5-10.9-41.4-29.1-77.2-53.5l-0.2-0.2c-6.2-4.2-12.6-8.6-19.3-13.1
		c-10.9-7.4-22.1-15-33.6-22.6h-10.4c13.9,9.3,27.6,18.5,40.7,27.4c6.7,4.5,13.2,8.9,19.3,13.1l0.2,0.2
		c35.8,24.4,61.7,42.5,77.2,53.4l4.5,3.2c0.5,0.4,1.1,0.8,1.6,1.1l6,4.3c0.7,0.5,1.4,1,2.1,1.5l1.6,1.1c0.6,0.5,1.3,0.9,1.8,1.3
		l1.3,0.9c0.2,0.1,0.4,0.3,0.6,0.4l0.1,0.1c0.4,0.3,0.8,0.6,1.3,0.9c0.2,0.1,0.3,0.2,0.4,0.3l0.1,0.1c0.1,0.1,0.3,0.2,0.4,0.3l1,0.7
		c0.1,0.1,0.2,0.2,0.3,0.2c-0.3,1.8-0.3,3.4-0.1,5c0.5,3.1,2,4.8,3.2,5.6c1.2,0.9,2.7,1.3,4.4,1.3c5.1,0,11.6-4.5,16.4-11.4
		C500.9,416.1,501.9,406.2,496.6,402.5z"/>
</g>
<g>
	<path class="st1" d="M165.5,183.6c0,0-1.6-1-4.4-2.8c-2.8-1.8-6.7-4.5-11.4-7.7c-2.3-1.6-4.9-3.4-7.5-5.2c-2.7-1.9-5.5-3.8-8.3-5.9
		c-2.9-2.1-5.9-4.2-8.9-6.4c-3-2.2-6.1-4.4-9.1-6.7c-3-2.3-6.1-4.5-9-6.7c-3-2.2-5.9-4.4-8.7-6.6c-2.8-2.1-5.5-4.2-8.1-6.2
		c-2.6-2-5-3.9-7.2-5.6c-4.5-3.5-8.2-6.4-10.8-8.5c-2.6-2.1-4-3.3-4-3.3s1.6,1,4.4,2.7c2.8,1.8,6.8,4.3,11.5,7.4
		c2.4,1.6,4.9,3.3,7.6,5.1c2.7,1.8,5.5,3.8,8.4,5.8c2.9,2.1,5.9,4.1,8.9,6.3c3,2.2,6.1,4.4,9.1,6.6c3,2.3,6.1,4.5,9,6.8
		c3,2.2,5.9,4.5,8.7,6.6c2.8,2.1,5.5,4.3,8.1,6.3c2.6,2,5,3.9,7.2,5.7C159.8,178.6,165.5,183.6,165.5,183.6z"/>
</g>
<g>
	<path class="st1" d="M121,179.4c4.8,3.1,9.5,6.2,14.2,9.3c3.1,2,6.2,4,9.3,6h5.7c-4.3-2.9-8.7-5.8-13.2-8.8
		c-4.7-3.1-9.4-6.2-14.1-9.4c-4.8-3.1-9.5-6.2-14.2-9.3c-4.7-3.1-9.3-6.1-13.8-9c-4.5-2.9-8.8-5.7-12.9-8.4c-4.1-2.7-8-5.2-11.6-7.5
		c-7.2-4.6-13.2-8.4-17.4-11.1c-2.1-1.4-3.8-2.4-4.9-3.1c-1.1-0.7-1.7-1.1-1.7-1.1s0.6,0.4,1.6,1.2c1.1,0.8,2.6,2,4.6,3.5
		c2,1.5,4.4,3.3,7.2,5.3c2.8,2.1,5.9,4.4,9.4,6.9c3.5,2.5,7.2,5.2,11.2,8c4,2.8,8.2,5.8,12.6,8.8c4.4,3,8.9,6.1,13.6,9.2
		C111.6,173.1,116.3,176.3,121,179.4z"/>
</g>
<g>
	<path class="st1" d="M30,82.9c0,0-0.1,0-0.4,0c-0.3,0-0.6,0.1-1,0.1c-0.4,0.1-0.9,0.3-1.4,0.6c-0.5,0.3-1,0.6-1.5,1.1
		c-0.5,0.4-1.1,1-1.6,1.6c-0.5,0.6-1.1,1.2-1.6,1.9c-0.5,0.7-1.1,1.5-1.6,2.2c-0.6,0.8-1.1,1.5-1.7,2.4l-0.9,1.3
		c-0.3,0.4-0.5,0.8-0.8,1.1C17,96,16.4,96.8,16,97.5c-0.5,0.8-0.9,1.5-1.3,2.2c-0.4,0.7-0.7,1.4-0.9,2c-0.2,0.6-0.4,1.2-0.5,1.8
		c-0.1,0.6-0.1,1.1-0.1,1.5c0.1,0.4,0.1,0.8,0.2,1c0.1,0.2,0.1,0.4,0.1,0.4c0,0-0.5-0.2-1.2-1c-0.1-0.2-0.3-0.4-0.5-0.7
		c-0.1-0.3-0.3-0.6-0.4-0.9c-0.2-0.7-0.4-1.5-0.4-2.4c0-0.4,0-0.9,0.1-1.4c0.1-0.5,0.1-0.9,0.2-1.4c0.2-1,0.5-1.9,0.9-2.9
		c0.4-1,0.9-1.9,1.4-2.9c0.3-0.5,0.6-1,0.9-1.4l0.9-1.3l0.9-1.3c0.3-0.4,0.7-0.8,1-1.3c0.7-0.8,1.4-1.6,2.2-2.3
		c0.8-0.7,1.6-1.3,2.4-1.8c0.8-0.5,1.7-0.9,2.5-1.2c0.8-0.3,1.6-0.4,2.4-0.5c0.4,0,0.7,0,1,0c0.3,0.1,0.6,0.1,0.8,0.2
		c0.5,0.2,0.8,0.4,1,0.5C29.9,82.8,30,82.9,30,82.9z"/>
</g>
<g>
	<path class="st1" d="M383.6,335.1l-6.1,8.7l-6.1,8.7l0.1,0.1l0.1,0.1c17.2,11.7,32.2,22,45,31c12.9,8.9,23.6,16.5,32.1,22.5
		c0.5,0.3,0.9,0.7,1.4,1c0.5,0.3,0.9,0.6,1.3,0.9c0.3,0.2,0.6,0.4,0.9,0.7c0.3,0.2,0.6,0.4,0.9,0.6c0.3,0.2,0.5,0.4,0.8,0.6
		c0.3,0.2,0.5,0.4,0.8,0.5c0.8,0.5,1.5,1.1,2.2,1.6c0.7,0.5,1.4,1,2.1,1.5c0.3,0.2,0.6,0.4,0.8,0.6c0.3,0.2,0.5,0.4,0.8,0.6
		c0.4,0.3,0.7,0.5,1.1,0.8c0.4,0.3,0.7,0.5,1,0.7c0.3,0.2,0.6,0.4,0.8,0.6s0.5,0.4,0.8,0.6c0.6,0.4,1.1,0.8,1.6,1.2
		c0.5,0.4,1,0.7,1.5,1.1c0.1,0.1,0.2,0.2,0.3,0.2c0.1,0.1,0.2,0.2,0.3,0.2c0.2,0.2,0.4,0.3,0.6,0.5c0.2,0.1,0.4,0.3,0.6,0.4
		c0.1,0.1,0.2,0.1,0.3,0.2s0.2,0.1,0.3,0.2c0.1,0.1,0.2,0.1,0.3,0.2c0.1,0.1,0.2,0.1,0.3,0.2c0.4,0.3,0.7,0.5,1,0.7
		c0.3,0.2,0.6,0.4,0.8,0.6l1-0.5c6-2.9,10.1-8.8,10.8-15.5l0.1-1.1c-0.3-0.2-0.5-0.4-0.8-0.6c-0.3-0.2-0.6-0.4-1-0.7
		c-0.2-0.1-0.4-0.3-0.6-0.4c-0.2-0.1-0.4-0.3-0.7-0.4c-0.1,0-0.2-0.1-0.2-0.2c-0.1-0.1-0.2-0.1-0.2-0.2c-0.1-0.1-0.2-0.1-0.3-0.2
		c-0.1-0.1-0.2-0.2-0.3-0.2c-0.1-0.1-0.2-0.2-0.3-0.2c-0.1-0.1-0.2-0.2-0.4-0.2c-1-0.7-2-1.4-3.2-2.2c-1.2-0.8-2.4-1.7-3.8-2.6
		c-0.3-0.2-0.5-0.4-0.8-0.6c-0.3-0.2-0.6-0.4-0.8-0.6c-0.1-0.1-0.2-0.1-0.2-0.2c-0.1-0.1-0.2-0.1-0.2-0.2c-0.5-0.3-1-0.7-1.5-1
		c-0.5-0.4-1-0.7-1.6-1.1c-0.4-0.2-0.7-0.5-1.1-0.7c-0.4-0.3-0.7-0.5-1.1-0.8c-0.4-0.3-0.8-0.5-1.1-0.8c-0.4-0.3-0.8-0.5-1.2-0.8
		c-0.2-0.1-0.4-0.3-0.6-0.4c-0.2-0.1-0.4-0.3-0.6-0.4c-2.4-1.7-4.9-3.4-7.7-5.3c-2.7-1.9-5.6-3.9-8.7-6.1c-1.7-1.2-3.5-2.5-5.3-3.7
		c-1.8-1.3-3.7-2.6-5.7-4c-0.5-0.4-1-0.7-1.5-1.1c-0.5-0.4-1-0.7-1.6-1.1c-1.2-0.8-2.4-1.7-3.6-2.6c-1.2-0.9-2.5-1.7-3.7-2.6
		c-0.6-0.4-1.2-0.9-1.8-1.3c-0.6-0.4-1.2-0.9-1.8-1.3c-0.3-0.2-0.6-0.5-1-0.7c-0.3-0.2-0.6-0.5-1-0.7c-0.3-0.2-0.7-0.5-1-0.7
		c-0.3-0.2-0.7-0.5-1-0.7c-0.7-0.5-1.3-0.9-2-1.4c-0.7-0.5-1.3-0.9-2-1.4c-0.3-0.2-0.7-0.5-1-0.7c-0.3-0.2-0.7-0.5-1-0.7
		c-0.7-0.5-1.4-1-2.1-1.5c-0.7-0.5-1.4-1-2.1-1.5c-0.7-0.5-1.4-1-2.1-1.5c-0.7-0.5-1.4-1-2.2-1.5c-0.7-0.5-1.4-1-2.2-1.6
		c-0.7-0.5-1.5-1-2.2-1.6c-2.2-1.6-4.5-3.2-6.8-4.9c-2.3-1.7-4.6-3.3-7-5L383.6,335.1L383.6,335.1z"/>
</g>
<g>
	<g>
		<path class="st0" d="M480.9,423.3c0,0,0.6-0.9,1.4-2.3c0.8-1.4,1.8-3.4,2.5-5.4c0.8-2,1.4-4,1.8-5.6c0.4-1.5,0.6-2.6,0.6-2.6
			l3.9,1.2c0,0-0.5,1.1-1.2,2.6c-0.8,1.5-1.9,3.5-3.2,5.3c-1.3,1.9-2.7,3.6-3.8,4.8C481.7,422.6,480.9,423.3,480.9,423.3z"/>
	</g>
	<g>
		<path class="st0" d="M473,417.8c0,0,0.6-0.9,1.4-2.3c0.8-1.4,1.8-3.4,2.5-5.4c0.8-2,1.4-4,1.8-5.6c0.4-1.5,0.6-2.6,0.6-2.6
			l3.9,1.2c0,0-0.5,1.1-1.2,2.6c-0.8,1.5-1.9,3.5-3.2,5.3c-1.3,1.9-2.7,3.6-3.8,4.8C473.8,417.1,473,417.8,473,417.8z"/>
	</g>
	<g>
		<path class="st0" d="M465.1,412.3c0,0,0.6-0.9,1.4-2.3c0.8-1.4,1.8-3.4,2.5-5.4c0.8-2,1.4-4,1.8-5.6c0.4-1.5,0.6-2.6,0.6-2.6
			l3.9,1.2c0,0-0.5,1.1-1.2,2.6c-0.8,1.5-1.9,3.5-3.2,5.3c-1.3,1.9-2.7,3.6-3.8,4.8C465.9,411.6,465.1,412.3,465.1,412.3z"/>
	</g>
	<g>
		<path class="st0" d="M457.3,406.8c0,0,0.6-0.9,1.4-2.3c0.8-1.4,1.8-3.4,2.5-5.4c0.8-2,1.4-4,1.8-5.6c0.4-1.5,0.6-2.6,0.6-2.6
			l3.9,1.2c0,0-0.5,1.1-1.2,2.6c-0.8,1.5-1.9,3.5-3.2,5.3c-1.3,1.9-2.7,3.6-3.8,4.8C458.1,406.1,457.3,406.8,457.3,406.8z"/>
	</g>
	<g>
		<path class="st0" d="M449.4,401.3c0,0,0.6-0.9,1.4-2.3c0.8-1.4,1.8-3.4,2.5-5.4c0.8-2,1.4-4,1.8-5.6c0.4-1.5,0.6-2.6,0.6-2.6
			l3.9,1.2c0,0-0.5,1.1-1.2,2.6c-0.8,1.5-1.9,3.5-3.2,5.3c-1.3,1.9-2.7,3.6-3.8,4.8C450.2,400.6,449.4,401.3,449.4,401.3z"/>
	</g>
	<g>
		<path class="st0" d="M441.5,395.8c0,0,0.6-0.9,1.4-2.3c0.8-1.4,1.8-3.4,2.5-5.4c0.8-2,1.4-4,1.8-5.6c0.4-1.5,0.6-2.6,0.6-2.6
			l3.9,1.2c0,0-0.5,1.1-1.2,2.6c-0.8,1.5-1.9,3.5-3.2,5.3c-1.3,1.9-2.7,3.6-3.8,4.8C442.3,395.1,441.5,395.8,441.5,395.8z"/>
	</g>
	<g>
		<path class="st0" d="M433.7,390.3c0,0,0.6-0.9,1.4-2.3c0.8-1.4,1.8-3.4,2.5-5.4c0.8-2,1.4-4,1.8-5.6c0.4-1.5,0.6-2.6,0.6-2.6
			l3.9,1.2c0,0-0.5,1.1-1.2,2.6c-0.8,1.5-1.9,3.5-3.2,5.3c-1.3,1.9-2.7,3.6-3.8,4.8C434.5,389.5,433.7,390.3,433.7,390.3z"/>
	</g>
	<g>
		<path class="st0" d="M425.8,384.8c0,0,0.6-0.9,1.4-2.3c0.8-1.4,1.8-3.4,2.5-5.4c0.8-2,1.4-4,1.8-5.6c0.4-1.5,0.6-2.6,0.6-2.6
			l3.9,1.2c0,0-0.5,1.1-1.2,2.6c-0.8,1.5-1.9,3.5-3.2,5.3c-1.3,1.9-2.7,3.6-3.8,4.8C426.6,384,425.8,384.8,425.8,384.8z"/>
	</g>
	<g>
		<path class="st0" d="M417.9,379.3c0,0,0.6-0.9,1.4-2.3c0.8-1.4,1.8-3.4,2.5-5.4c0.8-2,1.4-4,1.8-5.6c0.4-1.5,0.6-2.6,0.6-2.6
			l3.9,1.2c0,0-0.5,1.1-1.2,2.6c-0.8,1.5-1.9,3.5-3.2,5.3c-1.3,1.9-2.7,3.6-3.8,4.8C418.7,378.5,417.9,379.3,417.9,379.3z"/>
	</g>
	<g>
		<path class="st0" d="M410.1,373.8c0,0,0.6-0.9,1.4-2.3c0.8-1.4,1.8-3.4,2.5-5.4c0.8-2,1.4-4,1.8-5.6c0.4-1.5,0.6-2.6,0.6-2.6
			l3.9,1.2c0,0-0.5,1.1-1.2,2.6c-0.8,1.5-1.9,3.5-3.2,5.3c-1.3,1.9-2.7,3.6-3.8,4.8C410.9,373,410.1,373.8,410.1,373.8z"/>
	</g>
	<g>
		<path class="st0" d="M402.2,368.2c0,0,0.6-0.9,1.4-2.3c0.8-1.4,1.8-3.4,2.5-5.4c0.8-2,1.4-4,1.8-5.6c0.4-1.5,0.6-2.6,0.6-2.6
			l3.9,1.2c0,0-0.5,1.1-1.2,2.6c-0.8,1.5-1.9,3.5-3.2,5.3c-1.3,1.9-2.7,3.6-3.8,4.8C403,367.5,402.2,368.2,402.2,368.2z"/>
	</g>
	<g>
		<path class="st0" d="M394.3,362.7c0,0,0.6-0.9,1.4-2.3c0.8-1.4,1.8-3.4,2.5-5.4c0.8-2,1.4-4,1.8-5.6c0.4-1.5,0.6-2.6,0.6-2.6
			l3.9,1.2c0,0-0.5,1.1-1.2,2.6c-0.8,1.5-1.9,3.5-3.2,5.3c-1.3,1.9-2.7,3.6-3.8,4.8C395.1,362,394.3,362.7,394.3,362.7z"/>
	</g>
	<g>
		<path class="st0" d="M386.5,357.2c0,0,0.6-0.9,1.4-2.3c0.8-1.4,1.8-3.4,2.5-5.4c0.8-2,1.4-4,1.8-5.6c0.4-1.5,0.6-2.6,0.6-2.6
			l3.9,1.2c0,0-0.5,1.1-1.2,2.6c-0.8,1.5-1.9,3.5-3.2,5.3c-1.3,1.9-2.7,3.6-3.8,4.8C387.3,356.5,386.5,357.2,386.5,357.2z"/>
	</g>
	<g>
		<path class="st0" d="M378.6,351.7c0,0,0.6-0.9,1.4-2.3c0.8-1.4,1.8-3.4,2.5-5.4c0.8-2,1.4-4,1.8-5.6c0.4-1.5,0.6-2.6,0.6-2.6
			l3.9,1.2c0,0-0.5,1.1-1.2,2.6c-0.8,1.5-1.9,3.5-3.2,5.3c-1.3,1.9-2.7,3.6-3.8,4.8C379.4,351,378.6,351.7,378.6,351.7z"/>
	</g>
</g>
<path class="st0" d="M250.1,176.3c-16.5,0-31.3-7.1-41.5-18.5c-8.9-9.9-14.3-23-14.3-37.3c0-30.8,25-55.8,55.8-55.8
	c30.8,0,55.8,25,55.8,55.8c0,14.4-5.4,27.4-14.3,37.3C281.4,169.2,266.6,176.3,250.1,176.3z"/>
<path class="st1" d="M250.1,177.8c-16.2,0-31.8-6.9-42.7-19c-9.5-10.5-14.7-24.2-14.7-38.4c0-31.6,25.7-57.4,57.4-57.4
	c31.6,0,57.4,25.7,57.4,57.4c0,14.2-5.2,27.8-14.7,38.4C281.9,170.9,266.3,177.8,250.1,177.8z M250.1,66.2
	c-29.9,0-54.3,24.4-54.3,54.3c0,13.4,4.9,26.3,13.9,36.3c10.3,11.4,25,18,40.4,18c15.4,0,30.1-6.6,40.4-18c9-10,13.9-22.9,13.9-36.3
	C304.4,90.5,280,66.2,250.1,66.2z"/>
<g>
	<g>
		<path class="st1" d="M290,157.6c-0.7-0.7-1.3-1.4-2-2.1l-0.3-0.3c-1-1-2.1-2-3.2-2.9c-1.2-1-2.4-2-3.7-2.9
			c-1.3-0.9-2.6-1.8-3.9-2.5c-1.4-0.8-2.7-1.5-4.1-2.2c-1.4-0.7-2.8-1.3-4.3-1.8c-1.5-0.5-3-1-4.5-1.4c-1.5-0.4-3-0.7-4.6-1
			c-1.5-0.3-3.1-0.5-4.6-0.6c-3-0.3-6.3-0.3-9.3,0c-1.6,0.1-3.1,0.3-4.6,0.6c-1.5,0.3-3.1,0.6-4.6,1c-1.5,0.4-3,0.9-4.5,1.4
			c-1.5,0.5-2.9,1.1-4.3,1.8c-1.4,0.7-2.8,1.4-4.1,2.2c-1.3,0.8-2.7,1.6-3.9,2.5c-1.3,0.9-2.5,1.9-3.7,2.8c-1.2,1-2.3,2.1-3.5,3.2
			c-0.7,0.7-1.3,1.3-2,2.1l-1.4-1.3c0.7-0.7,1.3-1.5,2-2.1c1.1-1.1,2.3-2.2,3.6-3.3c1.2-1,2.5-2,3.8-3c1.3-0.9,2.7-1.8,4.1-2.6
			c1.4-0.8,2.8-1.6,4.3-2.2c1.4-0.7,2.9-1.3,4.5-1.9c1.5-0.6,3.1-1,4.6-1.5c1.5-0.4,3.1-0.8,4.7-1c1.6-0.3,3.2-0.5,4.8-0.6
			c3.1-0.3,6.6-0.3,9.7,0c1.6,0.1,3.2,0.3,4.8,0.6c1.6,0.3,3.2,0.6,4.7,1c1.5,0.4,3.1,0.9,4.6,1.5c1.5,0.6,3,1.2,4.5,1.9
			c1.5,0.7,2.9,1.4,4.3,2.2c1.4,0.8,2.7,1.7,4.1,2.6c1.3,0.9,2.6,1.9,3.8,3c1.2,1,2.4,2.1,3.6,3.3l0.3,0.3c0.6,0.6,1.2,1.2,1.7,1.9
			L290,157.6z"/>
	</g>
	<g>
		<path class="st1" d="M285.8,159c-0.3,0-0.7-0.1-0.9-0.4c-0.5-0.5-0.5-1.3,0-1.8l5.7-5.7c0.5-0.5,1.3-0.5,1.8,0
			c0.5,0.5,0.5,1.3,0,1.8l-5.7,5.7C286.5,158.9,286.2,159,285.8,159z"/>
	</g>
	<g>
		<path class="st1" d="M282.6,156c-0.3,0-0.6-0.1-0.8-0.3c-0.5-0.5-0.6-1.3-0.2-1.8l5.2-6.2c0.5-0.5,1.3-0.6,1.8-0.2
			c0.5,0.5,0.6,1.3,0.2,1.8l-5.2,6.2C283.3,155.9,282.9,156,282.6,156z"/>
	</g>
	<g>
		<path class="st1" d="M279.1,153.3c-0.3,0-0.5-0.1-0.7-0.2c-0.6-0.4-0.7-1.2-0.3-1.8l4.6-6.6c0.4-0.6,1.2-0.7,1.8-0.3
			c0.6,0.4,0.7,1.2,0.3,1.8l-4.6,6.6C279.9,153.1,279.5,153.3,279.1,153.3z"/>
	</g>
	<g>
		<path class="st1" d="M275.4,151c-0.2,0-0.4-0.1-0.6-0.2c-0.6-0.4-0.8-1.1-0.5-1.8l4-7c0.4-0.6,1.1-0.8,1.8-0.5
			c0.6,0.4,0.8,1.1,0.5,1.8l-4,7C276.2,150.7,275.8,151,275.4,151z"/>
	</g>
	<g>
		<path class="st1" d="M271.4,148.9c-0.2,0-0.4,0-0.5-0.1c-0.6-0.3-0.9-1.1-0.6-1.7l3.4-7.3c0.3-0.6,1.1-0.9,1.7-0.6
			c0.6,0.3,0.9,1.1,0.6,1.7l-3.4,7.3C272.4,148.7,271.9,148.9,271.4,148.9z"/>
	</g>
	<g>
		<path class="st1" d="M267.4,147.3c-0.1,0-0.3,0-0.4-0.1c-0.7-0.2-1-1-0.8-1.7l2.8-7.6c0.2-0.7,1-1,1.7-0.8c0.7,0.2,1,1,0.8,1.7
			l-2.8,7.6C268.4,146.9,267.9,147.3,267.4,147.3z"/>
	</g>
	<g>
		<path class="st1" d="M263.2,145.9c-0.1,0-0.2,0-0.3,0c-0.7-0.2-1.1-0.9-0.9-1.6l2.1-7.8c0.2-0.7,0.9-1.1,1.6-0.9
			c0.7,0.2,1.1,0.9,0.9,1.6l-2.1,7.8C264.3,145.5,263.7,145.9,263.2,145.9z"/>
	</g>
	<g>
		<path class="st1" d="M258.9,145c-0.1,0-0.1,0-0.2,0c-0.7-0.1-1.2-0.8-1-1.5l1.4-8c0.1-0.7,0.8-1.2,1.5-1c0.7,0.1,1.2,0.8,1,1.5
			l-1.4,8C260,144.5,259.5,145,258.9,145z"/>
	</g>
	<g>
		<path class="st1" d="M254.5,144.4c0,0-0.1,0-0.1,0c-0.7-0.1-1.2-0.7-1.2-1.4l0.7-8.1c0.1-0.7,0.7-1.2,1.4-1.2
			c0.7,0.1,1.2,0.7,1.2,1.4l-0.7,8.1C255.7,143.9,255.2,144.4,254.5,144.4z"/>
	</g>
	<g>
		<path class="st1" d="M250.1,144.2c-0.7,0-1.3-0.6-1.3-1.3v-8.1c0-0.7,0.6-1.3,1.3-1.3c0.7,0,1.3,0.6,1.3,1.3v8.1
			C251.4,143.6,250.8,144.2,250.1,144.2z"/>
	</g>
	<g>
		<path class="st1" d="M245.7,144.4c-0.7,0-1.2-0.5-1.3-1.2l-0.7-8.1c-0.1-0.7,0.5-1.3,1.2-1.4c0.7-0.1,1.3,0.5,1.4,1.2l0.7,8.1
			c0.1,0.7-0.5,1.3-1.2,1.4C245.8,144.4,245.7,144.4,245.7,144.4z"/>
	</g>
	<g>
		<path class="st1" d="M241.3,145c-0.6,0-1.2-0.4-1.3-1.1l-1.4-8c-0.1-0.7,0.3-1.4,1-1.5c0.7-0.1,1.4,0.3,1.5,1l1.4,8
			c0.1,0.7-0.3,1.4-1,1.5C241.5,145,241.4,145,241.3,145z"/>
	</g>
	<g>
		<path class="st1" d="M237,145.9c-0.6,0-1.1-0.4-1.2-1l-2.1-7.8c-0.2-0.7,0.2-1.4,0.9-1.6c0.7-0.2,1.4,0.2,1.6,0.9l2.1,7.8
			c0.2,0.7-0.2,1.4-0.9,1.6C237.2,145.9,237.1,145.9,237,145.9z"/>
	</g>
	<g>
		<path class="st1" d="M232.8,147.3c-0.5,0-1-0.3-1.2-0.8l-2.8-7.6c-0.2-0.7,0.1-1.4,0.8-1.7c0.7-0.2,1.4,0.1,1.7,0.8l2.8,7.6
			c0.2,0.7-0.1,1.4-0.8,1.7C233.1,147.2,233,147.3,232.8,147.3z"/>
	</g>
	<g>
		<path class="st1" d="M228.7,148.9c-0.5,0-1-0.3-1.2-0.7l-3.4-7.3c-0.3-0.6,0-1.4,0.6-1.7c0.6-0.3,1.4,0,1.7,0.6l3.4,7.3
			c0.3,0.6,0,1.4-0.6,1.7C229.1,148.9,228.9,148.9,228.7,148.9z"/>
	</g>
	<g>
		<path class="st1" d="M224.8,151c-0.4,0-0.9-0.2-1.1-0.6l-4-7c-0.4-0.6-0.1-1.4,0.5-1.8c0.6-0.4,1.4-0.1,1.8,0.5l4,7
			c0.4,0.6,0.1,1.4-0.5,1.8C225.3,150.9,225.1,151,224.8,151z"/>
	</g>
	<g>
		<path class="st1" d="M221.1,153.3c-0.4,0-0.8-0.2-1.1-0.6l-4.6-6.6c-0.4-0.6-0.3-1.4,0.3-1.8c0.6-0.4,1.4-0.3,1.8,0.3l4.6,6.6
			c0.4,0.6,0.3,1.4-0.3,1.8C221.6,153.3,221.4,153.3,221.1,153.3z"/>
	</g>
	<g>
		<path class="st1" d="M217.6,156c-0.4,0-0.7-0.2-1-0.5l-5.2-6.2c-0.5-0.5-0.4-1.4,0.2-1.8c0.5-0.5,1.4-0.4,1.8,0.2l5.2,6.2
			c0.5,0.5,0.4,1.4-0.2,1.8C218.2,155.9,217.9,156,217.6,156z"/>
	</g>
	<g>
		<path class="st1" d="M214.4,159c-0.3,0-0.7-0.1-0.9-0.4l-5.7-5.7c-0.5-0.5-0.5-1.3,0-1.8c0.5-0.5,1.3-0.5,1.8,0l5.7,5.7
			c0.5,0.5,0.5,1.3,0,1.8C215,158.9,214.7,159,214.4,159z"/>
	</g>
</g>
<g>
	<g>
		<path class="st1" d="M250.1,103c-1.6,0-3.3-0.1-4.8-0.2c-1.6-0.1-3.2-0.3-4.8-0.6c-1.6-0.3-3.2-0.6-4.7-1
			c-1.6-0.4-3.1-0.9-4.6-1.5c-1.5-0.6-3-1.2-4.5-1.9c-1.5-0.7-2.9-1.4-4.3-2.2c-1.4-0.8-2.8-1.7-4.1-2.6c-1.3-0.9-2.6-1.9-3.8-3
			c-1.2-1-2.4-2.1-3.6-3.3c-0.7-0.7-1.4-1.4-2-2.1l1.4-1.3c0.6,0.7,1.3,1.4,2,2.1c1.1,1.1,2.3,2.2,3.4,3.2c1.2,1,2.4,1.9,3.7,2.9
			c1.3,0.9,2.6,1.7,3.9,2.5c1.3,0.8,2.7,1.5,4.1,2.2c1.4,0.7,2.8,1.3,4.3,1.8c1.5,0.5,3,1,4.5,1.4c1.5,0.4,3,0.7,4.6,1
			c1.5,0.3,3.1,0.5,4.6,0.6c3,0.3,6.3,0.3,9.3,0c1.6-0.1,3.1-0.3,4.6-0.6c1.5-0.3,3.1-0.6,4.6-1c1.5-0.4,3-0.9,4.5-1.4
			c1.5-0.5,2.9-1.1,4.3-1.8c1.4-0.7,2.8-1.4,4.1-2.2c1.3-0.8,2.7-1.6,3.9-2.5c1.3-0.9,2.5-1.8,3.7-2.8c1.1-0.9,2.1-1.9,3.2-2.9v0
			l0.3-0.3c0.6-0.6,1.3-1.3,2-2.1l1.4,1.3c-0.6,0.7-1.2,1.3-1.7,1.9l-0.3,0.3c-1.1,1.1-2.4,2.3-3.6,3.3c-1.2,1-2.5,2-3.8,3
			c-1.3,0.9-2.7,1.8-4.1,2.6c-1.4,0.8-2.8,1.6-4.3,2.2c-1.4,0.7-2.9,1.3-4.5,1.9c-1.5,0.6-3.1,1-4.6,1.5c-1.5,0.4-3.1,0.8-4.7,1
			c-1.6,0.3-3.2,0.5-4.8,0.6C253.4,103,251.7,103,250.1,103z"/>
	</g>
	<g>
		<path class="st1" d="M291.5,90.2c-0.3,0-0.7-0.1-0.9-0.4l-5.7-5.7c-0.5-0.5-0.5-1.3,0-1.8c0.5-0.5,1.3-0.5,1.8,0l5.7,5.7
			c0.5,0.5,0.5,1.3,0,1.8C292.2,90.1,291.9,90.2,291.5,90.2z"/>
	</g>
	<g>
		<path class="st1" d="M287.8,93.7c-0.4,0-0.7-0.2-1-0.5l-5.2-6.2c-0.5-0.5-0.4-1.4,0.2-1.8c0.5-0.5,1.4-0.4,1.8,0.2l5.2,6.2
			c0.5,0.5,0.4,1.4-0.2,1.8C288.4,93.6,288.1,93.7,287.8,93.7z"/>
	</g>
	<g>
		<path class="st1" d="M283.7,96.8c-0.4,0-0.8-0.2-1.1-0.6l-4.6-6.6c-0.4-0.6-0.3-1.4,0.3-1.8c0.6-0.4,1.4-0.3,1.8,0.3l4.6,6.6
			c0.4,0.6,0.3,1.4-0.3,1.8C284.2,96.7,284,96.8,283.7,96.8z"/>
	</g>
	<g>
		<path class="st1" d="M279.4,99.5c-0.4,0-0.9-0.2-1.1-0.6l-4-7c-0.4-0.6-0.1-1.4,0.5-1.8c0.6-0.4,1.4-0.1,1.8,0.5l4,7
			c0.4,0.6,0.1,1.4-0.5,1.8C279.8,99.5,279.6,99.5,279.4,99.5z"/>
	</g>
	<g>
		<path class="st1" d="M274.9,101.9c-0.5,0-1-0.3-1.2-0.7l-3.4-7.3c-0.3-0.6,0-1.4,0.6-1.7c0.6-0.3,1.4,0,1.7,0.6l3.4,7.3
			c0.3,0.6,0,1.4-0.6,1.7C275.2,101.9,275,101.9,274.9,101.9z"/>
	</g>
	<g>
		<path class="st1" d="M270.1,103.9c-0.5,0-1-0.3-1.2-0.8l-2.8-7.6c-0.2-0.7,0.1-1.4,0.8-1.7c0.7-0.2,1.4,0.1,1.7,0.8l2.8,7.6
			c0.2,0.7-0.1,1.4-0.8,1.7C270.4,103.8,270.3,103.9,270.1,103.9z"/>
	</g>
	<g>
		<path class="st1" d="M265.3,105.4c-0.6,0-1.1-0.4-1.2-1l-2.1-7.8c-0.2-0.7,0.2-1.4,0.9-1.6c0.7-0.2,1.4,0.2,1.6,0.9l2.1,7.8
			c0.2,0.7-0.2,1.4-0.9,1.6C265.5,105.4,265.4,105.4,265.3,105.4z"/>
	</g>
	<g>
		<path class="st1" d="M260.3,106.5c-0.6,0-1.2-0.4-1.3-1.1l-1.4-8c-0.1-0.7,0.3-1.4,1-1.5c0.7-0.1,1.4,0.3,1.5,1l1.4,8
			c0.1,0.7-0.3,1.4-1,1.5C260.4,106.5,260.3,106.5,260.3,106.5z"/>
	</g>
	<g>
		<path class="st1" d="M255.2,107.2c-0.7,0-1.2-0.5-1.3-1.2l-0.7-8.1c-0.1-0.7,0.5-1.3,1.2-1.4c0.7-0.1,1.3,0.5,1.4,1.2l0.7,8.1
			c0.1,0.7-0.5,1.3-1.2,1.4C255.3,107.2,255.2,107.2,255.2,107.2z"/>
	</g>
	<g>
		<path class="st1" d="M250.1,107.4c-0.7,0-1.3-0.6-1.3-1.3V98c0-0.7,0.6-1.3,1.3-1.3c0.7,0,1.3,0.6,1.3,1.3v8.1
			C251.4,106.8,250.8,107.4,250.1,107.4z"/>
	</g>
	<g>
		<path class="st1" d="M245,107.2c0,0-0.1,0-0.1,0c-0.7-0.1-1.2-0.7-1.2-1.4l0.7-8.1c0.1-0.7,0.7-1.2,1.4-1.2
			c0.7,0.1,1.2,0.7,1.2,1.4l-0.7,8.1C246.2,106.7,245.7,107.2,245,107.2z"/>
	</g>
	<g>
		<path class="st1" d="M239.9,106.5c-0.1,0-0.1,0-0.2,0c-0.7-0.1-1.2-0.8-1-1.5l1.4-8c0.1-0.7,0.8-1.2,1.5-1c0.7,0.1,1.2,0.8,1,1.5
			l-1.4,8C241.1,106.1,240.5,106.5,239.9,106.5z"/>
	</g>
	<g>
		<path class="st1" d="M234.9,105.4c-0.1,0-0.2,0-0.3,0c-0.7-0.2-1.1-0.9-0.9-1.6l2.1-7.8c0.2-0.7,0.9-1.1,1.6-0.9
			c0.7,0.2,1.1,0.9,0.9,1.6l-2.1,7.8C236,105,235.5,105.4,234.9,105.4z"/>
	</g>
	<g>
		<path class="st1" d="M230,103.9c-0.1,0-0.3,0-0.4-0.1c-0.7-0.2-1-1-0.8-1.7l2.8-7.6c0.2-0.7,1-1,1.7-0.8c0.7,0.2,1,1,0.8,1.7
			l-2.8,7.6C231.1,103.5,230.6,103.9,230,103.9z"/>
	</g>
	<g>
		<path class="st1" d="M225.3,101.9c-0.2,0-0.4,0-0.5-0.1c-0.6-0.3-0.9-1.1-0.6-1.7l3.4-7.3c0.3-0.6,1.1-0.9,1.7-0.6
			c0.6,0.3,0.9,1.1,0.6,1.7l-3.4,7.3C226.3,101.6,225.8,101.9,225.3,101.9z"/>
	</g>
	<g>
		<path class="st1" d="M220.8,99.5c-0.2,0-0.4-0.1-0.6-0.2c-0.6-0.4-0.8-1.1-0.5-1.8l4-7c0.4-0.6,1.1-0.8,1.8-0.5
			c0.6,0.4,0.8,1.1,0.5,1.8l-4,7C221.7,99.3,221.2,99.5,220.8,99.5z"/>
	</g>
	<g>
		<path class="st1" d="M216.5,96.8c-0.3,0-0.5-0.1-0.7-0.2c-0.6-0.4-0.7-1.2-0.3-1.8l4.6-6.6c0.4-0.6,1.2-0.7,1.8-0.3
			c0.6,0.4,0.7,1.2,0.3,1.8l-4.6,6.6C217.3,96.6,216.9,96.8,216.5,96.8z"/>
	</g>
	<g>
		<path class="st1" d="M212.4,93.7c-0.3,0-0.6-0.1-0.8-0.3c-0.5-0.5-0.6-1.3-0.2-1.8l5.2-6.2c0.5-0.5,1.3-0.6,1.8-0.2
			c0.5,0.5,0.6,1.3,0.2,1.8l-5.2,6.2C213.2,93.5,212.8,93.7,212.4,93.7z"/>
	</g>
	<g>
		<path class="st1" d="M208.7,90.2c-0.3,0-0.7-0.1-0.9-0.4c-0.5-0.5-0.5-1.3,0-1.8l5.7-5.7c0.5-0.5,1.3-0.5,1.8,0
			c0.5,0.5,0.5,1.3,0,1.8l-5.7,5.7C209.3,90.1,209,90.2,208.7,90.2z"/>
	</g>
</g>
<g>
	<g>
		<g>
			<path class="st0" d="M74.6,289.1v-6.2l3.9-1.9v-53.9l-3.9-1.9V219H105c4.8,0,8.8,3.9,8.8,8.8v14.7c0,3-1,5.9-2.8,8.3l-0.7,0.9
				l0.7,0.9c1.8,2.4,2.8,5.3,2.8,8.3v19.3c0,4.8-3.9,8.8-8.8,8.8H74.6z M87.8,280.8h14.2c1.4,0,2.6-1.2,2.6-2.6v-17.5
				c0-2.6-2.1-4.6-4.6-4.6H87.8V280.8z M87.8,247.9h12.1c2.6,0,4.6-2.1,4.6-4.6v-13.4c0-1.4-1.2-2.6-2.6-2.6H87.8V247.9z"/>
		</g>
		<g>
			<path class="st0" d="M105,292.1H71.5V281l3.9-1.9V229l-3.9-1.9V216H105c6.5,0,11.8,5.3,11.8,11.8v14.7c0,3.3-1,6.5-2.8,9.3
				c1.8,2.8,2.8,6,2.8,9.3v19.3C116.8,286.8,111.5,292.1,105,292.1z M73.1,290.6h32c5.7,0,10.3-4.6,10.3-10.3V261
				c0-3.1-0.9-6.1-2.7-8.7l-0.4-0.6l0.4-0.6c1.8-2.6,2.7-5.6,2.7-8.7v-14.7c0-5.7-4.6-10.3-10.3-10.3h-32v8.6L77,228v52l-3.9,1.9
				V290.6z M101.7,279.3H89.3v-21.7h10.6c1.7,0,3.1,1.4,3.1,3.1v17.3C103,278.8,102.4,279.3,101.7,279.3z M90.8,277.8h10.7v-17.1
				c0-0.9-0.7-1.6-1.6-1.6h-9.1V277.8z M99.9,246.4H89.3v-17.6h12.5c0.7,0,1.3,0.6,1.3,1.3v13.2C103,245,101.6,246.4,99.9,246.4z
				 M90.8,244.8h9.1c0.9,0,1.6-0.7,1.6-1.6v-12.9H90.8V244.8z"/>
		</g>
	</g>
	<g>
		<g>
			<path class="st0" d="M139,289.5c-4.3,0-7.7-3.5-7.7-7.7v-54.2l-3.9-1.9v-6.2h17.1v6.2l-3.9,1.9v51.2c0,1.4,1.2,2.6,2.6,2.6h12.4
				c1.4,0,2.6-1.2,2.6-2.6v-51.2l-3.9-1.9v-6.2h17.1v6.2l-3.9,1.9v54.2c0,4.3-3.5,7.7-7.7,7.7H139z"/>
		</g>
		<g>
			<path class="st0" d="M159.6,292.6H139c-5.9,0-10.8-4.8-10.8-10.8v-52.4l-3.9-1.9v-11.1h23.2v11.1l-3.9,1.9v48.8H155v-48.8
				l-3.9-1.9v-11.1h23.2v11.1l-3.9,1.9v52.4C170.3,287.7,165.5,292.6,159.6,292.6z M125.8,226.5l3.9,1.9v53.3c0,5.1,4.1,9.2,9.2,9.2
				h20.6c5.1,0,9.2-4.1,9.2-9.2v-53.3l3.9-1.9V218h-20.1v8.6l3.9,1.9v50c0,0.7-0.6,1.3-1.3,1.3h-12c-0.7,0-1.3-0.6-1.3-1.3v-50
				l3.9-1.9V218h-20.1V226.5z"/>
		</g>
	</g>
	<g>
		<g>
			<polygon class="st0" points="183.8,289.5 183.8,283.4 187.7,281.4 187.7,227.5 183.8,225.6 183.8,219.4 200.9,219.4 200.9,225.6 
				197,227.5 197,281.3 211,281.3 213,277.3 219.1,277.3 219.1,289.5 			"/>
		</g>
		<g>
			<path class="st0" d="M222.2,292.6h-41.4v-11.1l3.9-1.9v-50.1l-3.9-1.9v-11.1h23.2v11.1l-3.9,1.9v48.8h9.1l1.9-3.9h11.1V292.6z
				 M182.3,291h38.3v-15.2H212l-1.9,3.9h-11.6v-51.3l3.9-1.9V218h-20.1v8.6l3.9,1.9v52l-3.9,1.9V291z"/>
		</g>
	</g>
	<g>
		<g>
			<polygon class="st0" points="233.2,289.5 233.2,283.4 237.2,281.4 237.2,227.5 233.2,225.6 233.2,219.4 250.4,219.4 250.4,225.6 
				246.4,227.5 246.4,281.3 260.5,281.3 262.4,277.3 268.6,277.3 268.6,289.5 			"/>
		</g>
		<g>
			<path class="st0" d="M271.6,292.6h-41.4v-11.1l3.9-1.9v-50.1l-3.9-1.9v-11.1h23.2v11.1l-3.9,1.9v48.8h9.1l1.9-3.9h11.1V292.6z
				 M231.7,291h38.3v-15.2h-8.6l-1.9,3.9h-11.6v-51.3l3.9-1.9V218h-20.1v8.6l3.9,1.9v52l-3.9,1.9V291z"/>
		</g>
	</g>
	<g>
		<g>
			<path class="st0" d="M282.2,289.5v-6.2l3.9-1.9v-53.9l-3.9-1.9v-6.2h29.7c4.8,0,8.8,3.9,8.8,8.8v28.9c0,4.8-3.9,8.8-8.8,8.8
				h-16.5v15.6l3.9,1.9v6.2H282.2z M295.4,257.6h13.4c1.4,0,2.6-1.2,2.6-2.6v-24.7c0-1.4-1.2-2.6-2.6-2.6h-13.4V257.6z"/>
		</g>
		<g>
			<path class="st0" d="M302.4,292.6h-23.2v-11.1l3.9-1.9v-50.1l-3.9-1.9v-11.1h32.7c6.5,0,11.8,5.3,11.8,11.8v28.9
				c0,6.5-5.3,11.8-11.8,11.8h-13.4v10.7l3.9,1.9V292.6z M280.7,291h20.1v-8.6l-3.9-1.9v-13.2h15c5.7,0,10.3-4.6,10.3-10.3v-28.9
				c0-5.7-4.6-10.3-10.3-10.3h-31.2v8.6l3.9,1.9v52l-3.9,1.9V291z M308.6,256.1h-11.7v-26.9h11.7c0.7,0,1.3,0.6,1.3,1.3v24.3
				C309.9,255.5,309.3,256.1,308.6,256.1z M298.4,254.5h9.9v-23.8h-9.9V254.5z"/>
		</g>
	</g>
	<g>
		<g>
			<polygon class="st0" points="332.2,289.5 332.2,283.4 336.1,281.4 336.1,227.5 332.2,225.6 332.2,219.4 368.1,219.4 368.1,231.6 
				361.9,231.6 360,227.7 345.4,227.7 345.4,248.3 358.5,248.3 357,256.5 345.4,256.5 345.4,281.3 360,281.3 361.9,277.3 
				368.1,277.3 368.1,289.5 			"/>
		</g>
		<g>
			<path class="st0" d="M371.1,292.6h-42v-11.1l3.9-1.9v-50.1l-3.9-1.9v-11.1h42v18.3H360l-1.9-3.9h-9.6v14.5h13.7l-2.6,14.3h-11.1
				v18.7h9.6l1.9-3.9h11.1V292.6z M330.7,291h38.9v-15.2H361l-1.9,3.9h-12.1V258h11.3l2-11.2h-13.4v-17.6H359l1.9,3.9h8.6V218h-38.9
				v8.6l3.9,1.9v52l-3.9,1.9V291z"/>
		</g>
	</g>
	<g>
		<g>
			<path class="st0" d="M425,225.6v-6.2h-17.1v6.2l3.9,1.9v37.2c-0.4,0.1-0.3,0.1-0.7,0.1l-17.9-45.4h-12.7v6.2l3.9,1.9v53.9
				l-3.9,1.9v6.2h17.1v-6.2l-3.9-1.9v-37.2c0.4-0.1,0.3-0.1,0.7-0.1l17.9,45.4H425v-6.2l-3.9-1.9v-53.9L425,225.6z"/>
		</g>
		<g>
			<path class="st0" d="M428,292.6h-17.8l-13.5-34.1v21.1l3.9,1.9v11.1h-23.2v-11.1l3.9-1.9v-50.1l-3.9-1.9v-11.1h17.8l13.5,34.1
				v-21.1l-3.9-1.9v-11.1H428v11.1l-3.9,1.9v50.1l3.9,1.9V292.6z M411.3,291h15.2v-8.6l-3.9-1.9v-52l3.9-1.9V218h-20.1v8.6l3.9,1.9
				V258c-0.1,0-0.1,0-0.3,0.1L394.2,218H379v8.6l3.9,1.9v52l-3.9,1.9v8.6h20.1v-8.6l-3.9-1.9V251c0.1,0,0.1,0,0.3-0.1L411.3,291z"/>
		</g>
	</g>
</g>
</svg>
