<?xml version="1.0" encoding="utf-8"?>
<!-- Generator: Adobe Illustrator 22.0.1, SVG Export Plug-In . SVG Version: 6.00 Build 0)  -->
<svg version="1.1" id="Layer_1" xmlns="http://www.w3.org/2000/svg" xmlns:xlink="http://www.w3.org/1999/xlink" x="0px" y="0px"
	 viewBox="0 0 24 24" style="enable-background:new 0 0 24 24;" xml:space="preserve">
<style type="text/css">
	.st0{fill:none;}
	.st1{fill:#FAFAFA;}
</style>
<path class="st0" d="M0,0h24v24H0V0z"/>
<path class="st1" d="M16,10H8c-0.6,0-1,0.4-1,1s0.4,1,1,1h8c0.5,0,1-0.4,1-1S16.5,10,16,10z M19,3h-1V2c0-0.5-0.5-1-1-1s-1,0.5-1,1
	v1H8V2c0-0.5-0.4-1-1-1S6,1.5,6,2v1H5C3.9,3,3,3.9,3,5v14c0,1.1,0.9,2,2,2h14c1.1,0,2-0.9,2-2V5C21,3.9,20.1,3,19,3z M18,19H6
	c-0.6,0-1-0.5-1-1V8h14v10C19,18.5,18.5,19,18,19z M13,14H8c-0.6,0-1,0.4-1,1s0.4,1,1,1h5c0.6,0,1-0.4,1-1S13.6,14,13,14z"/>
</svg>
