<?xml version="1.0" encoding="utf-8"?>
<!-- Generator: Adobe Illustrator 22.0.1, SVG Export Plug-In . SVG Version: 6.00 Build 0)  -->
<svg version="1.1" id="Layer_1" xmlns="http://www.w3.org/2000/svg" xmlns:xlink="http://www.w3.org/1999/xlink" x="0px" y="0px"
	 viewBox="0 0 24 24" style="enable-background:new 0 0 24 24;" xml:space="preserve">
<style type="text/css">
	.st0{fill:none;}
	.st1{fill:#4FACFE;}
</style>
<g id="Bounding_Box">
	<rect class="st0" width="24" height="24"/>
	<rect class="st0" width="24" height="24"/>
</g>
<g id="Flat">
	<g id="ui_x5F_spec_x5F_header_copy_2">
	</g>
	<g>
		<g>
			<path class="st1" d="M16.7,13.1c1.3,1,2.3,2.2,2.3,3.9v3h3c0.5,0,1-0.5,1-1v-2C23,14.8,19.4,13.5,16.7,13.1z"/>
		</g>
		<g>
			<circle class="st1" cx="9" cy="8" r="4"/>
		</g>
		<g>
			<path class="st1" d="M15,12c2.2,0,4-1.8,4-4s-1.8-4-4-4c-0.5,0-0.9,0.1-1.3,0.2C14.5,5.3,15,6.6,15,8s-0.5,2.7-1.3,3.8
				C14.1,11.9,14.5,12,15,12z"/>
		</g>
		<g>
			<path class="st1" d="M9,13c-2.7,0-8,1.3-8,4v2c0,0.5,0.5,1,1,1h14c0.5,0,1-0.5,1-1v-2C17,14.3,11.7,13,9,13z"/>
		</g>
	</g>
</g>
</svg>
