<?xml version="1.0" encoding="utf-8"?>
<!-- Generator: Adobe Illustrator 22.0.1, SVG Export Plug-In . SVG Version: 6.00 Build 0)  -->
<svg version="1.1" id="Layer_1" xmlns="http://www.w3.org/2000/svg" xmlns:xlink="http://www.w3.org/1999/xlink" x="0px" y="0px"
	 viewBox="0 0 24 24" style="enable-background:new 0 0 24 24;" xml:space="preserve">
<style type="text/css">
	.st0{fill:none;}
	.st1{fill:#4FACFE;}
</style>
<path class="st0" d="M0,0h24v24H0V0z"/>
<path class="st1" d="M15,12c2.2,0,4-1.8,4-4s-1.8-4-4-4s-4,1.8-4,4S12.8,12,15,12z M6,10V8c0-0.6-0.4-1-1-1S4,7.4,4,8v2H2
	c-0.5,0-1,0.4-1,1s0.5,1,1,1h2v2c0,0.6,0.4,1,1,1s1-0.4,1-1v-2h2c0.6,0,1-0.4,1-1s-0.4-1-1-1H6z M15,14c-2.7,0-8,1.3-8,4v1
	c0,0.5,0.4,1,1,1h14c0.5,0,1-0.5,1-1v-1C23,15.3,17.7,14,15,14z"/>
</svg>
