<?xml version="1.0" encoding="utf-8"?>
<!-- Generator: Adobe Illustrator 22.0.1, SVG Export Plug-In . SVG Version: 6.00 Build 0)  -->
<svg version="1.0" id="Layer_1" xmlns="http://www.w3.org/2000/svg" xmlns:xlink="http://www.w3.org/1999/xlink" x="0px" y="0px"
	 viewBox="0 0 1220 480" enable-background="new 0 0 1220 480" xml:space="preserve">
<path fill="#FFFFFF" d="M163.2,261.3c6.3-7.9,10.2-17.5,10.2-27.8c0-17.5-9.7-26.4-16.4-31.2c-16.5-11.8-19.8-25.8-20-34.5
	c-0.1-3.7-3.8-5.8-6.8-4c-51.4,31.8-45.7,65-45.5,69.7c0.3,8.9,4.3,19.2,11,27.8h-0.1c0.8,1,1.1,2.4,0.8,3.7c1.3,0.6,1.9,2,2,3.4
	c4.4,0.6,9.3,0,13.4,0.1c7.2,0.1,14.3,0.1,21.5,0.3c7.6,0.2,15.3,0.6,22.9,0.2c2.1-0.1,4.1-0.5,5.9-1c-0.4-1.5,0-3.3,1.2-4.3
	c0-0.1,0-0.2,0-0.3c-0.1-0.7,0-1.4,0.2-2.1H163.2z M158,239.4c-1.7,15.7-18.7,22-30.1,12.3c6.7-2.2,12.4-9.7,13.6-15.1
	c1.1-5.1-1-9.7-1.8-14.8c-0.7-4.3-0.6-7.9,0.7-11.9C145.2,221.2,159.5,225.1,158,239.4z"/>
<path fill="#FFFFFF" d="M198.4,221.6c-29.6,2.9-55,19.3-70.6,43c-6.6-10-14.9-18.7-24.6-25.7c0.2,0.1,0.4,0.3,0.6,0.4
	c-0.3-0.2-0.5-0.4-0.8-0.5c-13.1-9.4-28.7-15.5-45.6-17.2c-5.1-0.5-9.3,3.7-8.9,8.9c3.6,38.3,29.1,70,63.6,82.4
	c5,1.8,10.3,3.2,15.7,4.1c5.4-1,10.6-2.3,15.7-4.1c34.5-12.4,60-44,63.6-82.4C207.7,225.3,203.4,221.1,198.4,221.6z"/>
<g>
	<rect x="250.1" y="186.7" fill="none" width="887.9" height="106.7"/>
	<path fill="#FFFFFF" d="M282,186.7v28.2h12.1V244H282c0,5.8,0.9,9.9,2.7,12.1c1.8,2.2,5.1,3.3,9.9,3.3v29c-1.4,0-2.4,0.1-3.1,0.1
		c-6.1,0-11.9-1.4-17.3-4.3c-5.4-2.9-9.8-6.8-13-11.8c-4.1-6.3-6.2-14.7-6.2-25.2v-60.4H282z"/>
	<path fill="#FFFFFF" d="M306.1,214.9h27v39.6c0,3.1,0.3,5.2,0.9,6.5c0.6,1.2,1.8,1.8,3.4,1.8c3,0,4.6-2.8,4.6-8.3v-39.6h27v39.6
		c0,3.1,0.3,5.2,1,6.5c0.7,1.2,1.8,1.8,3.4,1.8c3,0,4.5-2.8,4.5-8.3v-39.6h27v45.3c0,8.3-2.7,15.3-8.2,21.1
		c-5.4,5.8-12,8.7-19.8,8.7c-8,0-15.2-3.4-21.5-10.3c-7,6.9-14.1,10.3-21.2,10.3c-9,0-16.2-3.3-21.7-10c-4.3-5.3-6.4-12.9-6.4-22.8
		V214.9z"/>
	<path fill="#FFFFFF" d="M453.7,212.3c10.2,0,19,3.7,26.3,11.2c7.3,7.5,10.9,16.5,10.9,26.9c0,10.6-3.7,19.7-11.1,27.1
		c-7.4,7.5-16.3,11.2-26.8,11.2c-10.5,0-19.4-3.7-26.8-11.2c-7.4-7.5-11.1-16.5-11.1-27.1c0-10.8,3.7-19.8,11.1-27.2
		C433.6,216,442.8,212.3,453.7,212.3z M452.9,239.5c-2.9,0-5.3,1.1-7.4,3.2c-2,2.1-3,4.8-3,7.9c0,3,1,5.7,3.1,7.8
		c2,2.2,4.5,3.2,7.3,3.2c2.9,0,5.4-1.1,7.4-3.2c2-2.2,3.1-4.8,3.1-7.8c0-3.1-1-5.7-3-7.9C458.4,240.6,455.9,239.5,452.9,239.5z"/>
	<path fill="#FFFFFF" d="M561.9,186.7V247c0,9.8,3.4,14.7,10.3,14.7c2.9,0,5.4-1,7.5-3.1c2-2,3.1-4.5,3.1-7.4c0-3-1-5.5-2.9-7.6
		c-1.9-2-4.3-3.1-7.1-3.1c-2,0-4.2,0.9-6.8,2.7v-30.4c3.2-0.3,5.6-0.4,7.2-0.4c10.2,0,18.9,3.7,26.1,11.2c7.2,7.5,10.9,16.5,10.9,27
		c0,10.8-3.7,19.8-11.1,27.2c-7.4,7.4-16.4,11.1-27.2,11.1c-5.4,0-10.7-1.2-15.8-3.6c-5.1-2.4-9.4-5.7-12.7-9.7
		c-5.8-7.1-8.7-16.2-8.7-27.5v-61.3H561.9z"/>
	<path fill="#FFFFFF" d="M647.8,213.9v73.5h-27v-73.5H647.8z M634.3,181.1c3.7,0,6.8,1.3,9.5,3.9c2.7,2.6,4,5.7,4,9.3
		c0,3.8-1.3,7-3.8,9.4c-2.5,2.5-5.8,3.7-9.7,3.7c-4,0-7.2-1.2-9.7-3.7c-2.5-2.5-3.8-5.6-3.8-9.4c0-3.6,1.3-6.7,4-9.3
		C627.5,182.4,630.7,181.1,634.3,181.1z"/>
	<path fill="#FFFFFF" d="M686.4,186.7v28.2h12.1V244h-12.1c0,5.8,0.9,9.9,2.7,12.1s5.1,3.3,9.9,3.3v29c-1.4,0-2.4,0.1-3.1,0.1
		c-6.1,0-11.9-1.4-17.3-4.3c-5.4-2.9-9.8-6.8-13-11.8c-4.1-6.3-6.2-14.7-6.2-25.2v-60.4H686.4z"/>
	<path fill="#FFFFFF" d="M746.2,186.7h29.3v59.8c0,4.7,0.7,7.8,2.2,9.3c1.5,1.5,4.4,2.3,8.7,2.3h1.5v29.2h-7.8
		c-10.7,0-19-3.2-25-9.5c-6-6.4-9-15.2-9-26.5V186.7z"/>
	<path fill="#FFFFFF" d="M828.7,212.3c10.2,0,19,3.7,26.3,11.2c7.3,7.5,10.9,16.5,10.9,26.9c0,10.6-3.7,19.7-11.1,27.1
		c-7.4,7.5-16.3,11.2-26.8,11.2c-10.5,0-19.4-3.7-26.8-11.2c-7.4-7.5-11.1-16.5-11.1-27.1c0-10.8,3.7-19.8,11.1-27.2
		C808.6,216,817.8,212.3,828.7,212.3z M827.9,239.5c-2.9,0-5.3,1.1-7.4,3.2c-2,2.1-3,4.8-3,7.9c0,3,1,5.7,3.1,7.8
		c2,2.2,4.5,3.2,7.3,3.2c2.9,0,5.4-1.1,7.4-3.2c2-2.2,3.1-4.8,3.1-7.8c0-3.1-1-5.7-3-7.9C833.4,240.6,830.9,239.5,827.9,239.5z"/>
	<path fill="#FFFFFF" d="M899.9,186.7v28.2H912V244h-12.1c0,5.8,0.9,9.9,2.7,12.1s5.1,3.3,9.9,3.3v29c-1.4,0-2.4,0.1-3.1,0.1
		c-6.1,0-11.9-1.4-17.3-4.3c-5.4-2.9-9.8-6.8-13-11.8c-4.1-6.3-6.2-14.7-6.2-25.2v-60.4H899.9z"/>
	<path fill="#FFFFFF" d="M924,214.9h27v41.5c0,4.2,1.7,6.3,5.1,6.3c3.4,0,5.1-2.1,5.1-6.3v-41.5h27v41c0,9.5-3.1,17.6-9.3,24.1
		c-6.2,6.6-13.8,9.8-22.8,9.8c-10.3,0-18.5-3.8-24.8-11.4c-4.9-5.9-7.3-14.2-7.3-24.8V214.9z"/>
	<path fill="#FFFFFF" d="M1047.8,214.9v29c-3.8,0-6.4,0.7-7.8,2.2c-1.4,1.5-2.3,4.3-2.7,8.6c-1.3,14.2-6.6,24.2-16.2,30.1
		c-5.1,3-12.2,4.6-21.5,4.6h-3.8v-29.2h1.2c4.3,0,7.4-0.9,9.3-2.8c1.9-1.8,2.9-5.1,3.2-9.7c0.4-7.5,1.1-12.8,2.1-15.9
		c1-3,3-6.1,6-9.1c5.3-5.3,12.6-7.9,22-7.9H1047.8z"/>
</g>
<g>
</g>
<g>
</g>
<g>
</g>
<g>
</g>
<g>
</g>
<g>
</g>
</svg>
