<?xml version="1.0" encoding="utf-8"?>
<!-- Generator: Adobe Illustrator 22.0.1, SVG Export Plug-In . SVG Version: 6.00 Build 0)  -->
<svg version="1.0" id="Layer_1" xmlns="http://www.w3.org/2000/svg" xmlns:xlink="http://www.w3.org/1999/xlink" x="0px" y="0px"
	 viewBox="0 0 500 500" enable-background="new 0 0 500 500" xml:space="preserve">
<path fill="#FFFFFF" d="M359.5,317.4c19.6-24.5,31.7-54.5,31.7-86.5c0-54.5-30-81.9-51-96.9c-51.3-36.6-61.5-80.2-62-107.3
	C278,15.1,266.4,8.5,257,14.3C97.2,113.2,115.1,216.1,115.6,230.9c0.8,27.7,13.5,59.7,34.2,86.5h-0.4c2.5,3.1,3.4,7.5,2.5,11.5
	c4,2,6,6.2,6.2,10.6c13.8,1.8,28.8,0,41.5,0.2c22.3,0.3,44.5,0.4,66.8,1.1c23.7,0.7,47.6,1.9,71.3,0.6c6.5-0.4,12.6-1.5,18.5-3.2
	c-1.2-4.8,0-10.3,3.7-13.4c0-0.3,0-0.6,0-0.9c-0.2-2.2,0-4.4,0.7-6.4H359.5z M343.3,249.3c-5.2,48.7-58.2,68.4-93.4,38.1
	c20.9-6.9,38.6-30,42.2-47c3.3-15.9-3-30-5.5-45.9c-2.2-13.3-1.9-24.5,2.2-36.9C303.6,192.5,348,204.9,343.3,249.3z"/>
<path fill="#FFFFFF" d="M468.9,193.8c-91.9,8.9-171,60-219.3,133.6c-20.4-31.1-46.4-58.2-76.5-79.8c0.6,0.4,1.3,0.8,1.9,1.2
	c-0.8-0.6-1.6-1.1-2.4-1.7C131.7,218,83.3,199,30.8,193.8c-15.9-1.5-29,11.6-27.5,27.5c11.2,118.9,90.4,217.6,197.8,256
	c15.6,5.7,32,9.9,48.8,12.6c16.9-3,33-7.2,48.8-12.6c107.3-38.4,186.6-136.8,197.8-256C497.9,205.5,484.5,192.4,468.9,193.8z"/>
<g>
</g>
<g>
</g>
<g>
</g>
<g>
</g>
<g>
</g>
<g>
</g>
</svg>
